<svg width="560" height="123" viewBox="0 0 560 123" fill="none" xmlns="http://www.w3.org/2000/svg">
<path d="M387.216 21.8064H413.957V88.1299H387.216V21.8064Z" fill="#4A48AD"/>
<path d="M19.1944 1.70833H44.2818L63.4762 121.292H44.9553L41.5879 97.5458V97.8875H20.5414L17.1739 121.292H0L19.1944 1.70833ZM39.3991 81.6583L31.1488 22.55H30.8121L22.7302 81.6583H39.3991Z" fill="white"/>
<path d="M69.0943 1.70833H87.6153V52.1042L111.187 1.70833H129.708L107.652 45.6125L130.045 121.292H110.682L95.0236 67.9917L87.6153 83.1958V121.292H69.0943V1.70833Z" fill="white"/>
<path d="M135.443 1.70833H153.964V121.292H135.443V1.70833Z" fill="white"/>
<path d="M164.468 1.70833H187.703L205.719 73.2875H206.056V1.70833H222.556V121.292H203.53L181.305 33.9958H180.968V121.292H164.468V1.70833Z" fill="white"/>
<path d="M256.553 1.70833H307.064V18.7917H275.074V50.3958H300.498V67.4792H275.074V104.208H307.064V121.292H256.553V1.70833Z" fill="white"/>
<path d="M309.469 1.70833H328.158L340.281 94.4708H340.618L352.741 1.70833H369.746L351.899 121.292H327.316L309.469 1.70833Z" fill="white"/>
<path d="M389.587 1.70833H414.674L433.868 121.292H415.347L411.98 97.5458V97.8875H390.934L387.566 121.292H370.392L389.587 1.70833ZM409.791 81.6583L401.541 22.55H401.204L393.122 81.6583H409.791Z" fill="white"/>
<path d="M439.486 1.70833H462.722L480.738 73.2875H481.074V1.70833H497.575V121.292H478.549L456.324 33.9958H455.987V121.292H439.486V1.70833Z" fill="white"/>
<path d="M532.05 123C523.07 123 516.279 120.438 511.677 115.312C507.075 110.074 504.774 102.614 504.774 92.9333V86.1H522.285V94.3C522.285 102.044 525.484 105.917 531.882 105.917C535.025 105.917 537.382 105.006 538.953 103.183C540.637 101.247 541.479 98.1722 541.479 93.9583C541.479 88.9472 540.357 84.5625 538.112 80.8042C535.867 76.9319 531.714 72.3194 525.652 66.9667C518.019 60.1333 512.687 53.9833 509.657 48.5167C506.626 42.9361 505.111 36.6722 505.111 29.725C505.111 20.2722 507.468 12.9833 512.182 7.85833C516.897 2.61944 523.744 0 532.724 0C541.591 0 548.27 2.61944 552.76 7.85833C557.362 12.9833 559.663 20.3861 559.663 30.0667V35.0208H542.153V28.8708C542.153 24.7708 541.367 21.8097 539.795 19.9875C538.224 18.0514 535.923 17.0833 532.892 17.0833C526.719 17.0833 523.632 20.8986 523.632 28.5292C523.632 32.8569 524.754 36.9 526.999 40.6583C529.356 44.4167 533.566 48.9722 539.627 54.325C547.372 61.1583 552.704 67.3653 555.622 72.9458C558.541 78.5264 560 85.075 560 92.5917C560 102.386 557.587 109.903 552.76 115.142C548.046 120.381 541.142 123 532.05 123Z" fill="white"/>
</svg>
