<svg width="543" height="123" viewBox="0 0 543 123" fill="none" xmlns="http://www.w3.org/2000/svg">
<path d="M383 17H410V61H383V17Z" fill="#0BAFF2"/>
<path d="M0.970001 1.99993H29.53C38.8233 1.99993 45.7933 4.49326 50.44 9.47993C55.0867 14.4666 57.41 21.7766 57.41 31.4099V91.5899C57.41 101.223 55.0867 108.533 50.44 113.52C45.7933 118.507 38.8233 121 29.53 121H0.970001V1.99993ZM29.19 104C32.25 104 34.5733 103.093 36.16 101.28C37.86 99.4666 38.71 96.5199 38.71 92.4399V30.5599C38.71 26.4799 37.86 23.5333 36.16 21.7199C34.5733 19.9066 32.25 18.9999 29.19 18.9999H19.67V104H29.19Z" fill="white"/>
<path d="M66.6325 1.99993H117.632V18.9999H85.3325V50.4499H111.003V67.4499H85.3325V104H117.632V121H66.6325V1.99993Z" fill="white"/>
<path d="M120.06 1.99993H138.93L151.17 94.3099H151.51L163.75 1.99993H180.92L162.9 121H138.08L120.06 1.99993Z" fill="white"/>
<path d="M186.502 1.99993H237.502V18.9999H205.202V50.4499H230.872V67.4499H205.202V104H237.502V121H186.502V1.99993Z" fill="white"/>
<path d="M244.86 1.99993H263.56V104H294.33V121H244.86V1.99993Z" fill="white"/>
<path d="M326.928 122.7C317.748 122.7 310.721 120.093 305.848 114.88C300.974 109.667 298.538 102.3 298.538 92.7799V30.2199C298.538 20.6999 300.974 13.3333 305.848 8.11993C310.721 2.90659 317.748 0.299927 326.928 0.299927C336.108 0.299927 343.134 2.90659 348.008 8.11993C352.881 13.3333 355.318 20.6999 355.318 30.2199V92.7799C355.318 102.3 352.881 109.667 348.008 114.88C343.134 120.093 336.108 122.7 326.928 122.7ZM326.928 105.7C333.388 105.7 336.618 101.79 336.618 93.9699V29.0299C336.618 21.2099 333.388 17.2999 326.928 17.2999C320.468 17.2999 317.238 21.2099 317.238 29.0299V93.9699C317.238 101.79 320.468 105.7 326.928 105.7Z" fill="white"/>
<path d="M364.564 1.99993H392.104C401.397 1.99993 408.367 4.49326 413.014 9.47993C417.661 14.4666 419.984 21.7766 419.984 31.4099V43.1399C419.984 52.7733 417.661 60.0833 413.014 65.0699C408.367 70.0566 401.397 72.5499 392.104 72.5499H383.264V121H364.564V1.99993ZM392.104 55.5499C395.164 55.5499 397.431 54.6999 398.904 52.9999C400.491 51.2999 401.284 48.4099 401.284 44.3299V30.2199C401.284 26.1399 400.491 23.2499 398.904 21.5499C397.431 19.8499 395.164 18.9999 392.104 18.9999H383.264V55.5499H392.104Z" fill="white"/>
<path d="M426.74 1.99993H477.74V18.9999H445.44V50.4499H471.11V67.4499H445.44V104H477.74V121H426.74V1.99993Z" fill="white"/>
<path d="M485.098 1.99993H512.808C522.441 1.99993 529.468 4.26659 533.888 8.79993C538.308 13.2199 540.518 20.0766 540.518 29.3699V36.6799C540.518 49.0333 536.438 56.8533 528.278 60.1399V60.4799C532.811 61.8399 535.985 64.6166 537.798 68.8099C539.725 73.0033 540.688 78.6133 540.688 85.6399V106.55C540.688 109.95 540.801 112.727 541.028 114.88C541.255 116.92 541.821 118.96 542.728 121H523.688C523.008 119.073 522.555 117.26 522.328 115.56C522.101 113.86 521.988 110.8 521.988 106.38V84.6199C521.988 79.1799 521.081 75.3833 519.268 73.2299C517.568 71.0766 514.565 69.9999 510.258 69.9999H503.798V121H485.098V1.99993ZM510.598 52.9999C514.338 52.9999 517.115 52.0366 518.928 50.1099C520.855 48.1833 521.818 44.9533 521.818 40.4199V31.2399C521.818 26.9333 521.025 23.8166 519.438 21.8899C517.965 19.9633 515.585 18.9999 512.298 18.9999H503.798V52.9999H510.598Z" fill="white"/>
</svg>
