<svg width="50" height="8" viewBox="0 0 50 8" fill="none" xmlns="http://www.w3.org/2000/svg">
<path d="M0 7.33133C1.47978 7.33133 2.32537 6.17571 2.85386 5.18518C3.38235 4.35974 3.59375 4.02956 4.22794 4.02956C4.86213 4.02956 5.07353 4.35974 5.60202 5.18518C6.13051 6.17571 6.9761 7.33133 8.45588 7.33133C9.93566 7.33133 10.7812 6.17571 11.3097 5.18518C11.8382 4.35974 12.0496 4.02956 12.6838 4.02956C13.318 4.02956 13.5294 4.35974 14.0579 5.18518C14.5864 6.17571 15.432 7.33133 16.9118 7.33133V4.02956C16.2776 4.02956 16.0662 3.69938 15.5377 2.87393C15.0092 1.8834 14.1636 0.727783 12.6838 0.727783C11.204 0.727783 10.3585 1.8834 9.82996 2.87393C9.30147 3.69938 9.09007 4.02956 8.45588 4.02956C7.82169 4.02956 7.61029 3.69938 7.0818 2.87393C6.55331 1.8834 5.70772 0.727783 4.22794 0.727783C2.74816 0.727783 1.90257 1.8834 1.37408 2.87393C0.845588 3.69938 0.634191 4.02956 0 4.02956V7.33133Z" fill="#0BAFF2"/>
<path d="M16.5441 7.33133C18.0239 7.33133 18.8695 6.17571 19.398 5.18518C19.9265 4.35974 20.1379 4.02956 20.7721 4.02956C21.4062 4.02956 21.6176 4.35974 22.1461 5.18518C22.6746 6.17571 23.5202 7.33133 25 7.33133C26.4798 7.33133 27.3254 6.17571 27.8539 5.18518C28.3824 4.35974 28.5937 4.02956 29.2279 4.02956C29.8621 4.02956 30.0735 4.35974 30.602 5.18518C31.1305 6.17571 31.9761 7.33133 33.4559 7.33133V4.02956C32.8217 4.02956 32.6103 3.69938 32.0818 2.87393C31.5533 1.8834 30.7077 0.727783 29.2279 0.727783C27.7482 0.727783 26.9026 1.8834 26.3741 2.87393C25.8456 3.69938 25.6342 4.02956 25 4.02956C24.3658 4.02956 24.1544 3.69938 23.6259 2.87393C23.0974 1.8834 22.2518 0.727783 20.7721 0.727783C19.2923 0.727783 18.4467 1.8834 17.9182 2.87393C17.3897 3.69938 17.1783 4.02956 16.5441 4.02956V7.33133Z" fill="#0BAFF2"/>
<path d="M33.0882 7.33133C34.568 7.33133 35.4136 6.17571 35.9421 5.18518C36.4706 4.35974 36.682 4.02956 37.3162 4.02956C37.9504 4.02956 38.1618 4.35974 38.6903 5.18518C39.2187 6.17571 40.0643 7.33133 41.5441 7.33133C43.0239 7.33133 43.8695 6.17571 44.398 5.18518C44.9265 4.35974 45.1379 4.02956 45.7721 4.02956C46.4062 4.02956 46.6176 4.35974 47.1461 5.18518C47.6746 6.17571 48.5202 7.33133 50 7.33133V4.02956C49.3658 4.02956 49.1544 3.69938 48.6259 2.87393C48.0974 1.8834 47.2518 0.727783 45.7721 0.727783C44.2923 0.727783 43.4467 1.8834 42.9182 2.87393C42.3897 3.69938 42.1783 4.02956 41.5441 4.02956C40.9099 4.02956 40.6985 3.69938 40.17 2.87393C39.6415 1.8834 38.796 0.727783 37.3162 0.727783C35.8364 0.727783 34.9908 1.8834 34.4623 2.87393C33.9338 3.69938 33.7224 4.02956 33.0882 4.02956V7.33133Z" fill="#0BAFF2"/>
</svg>
