<svg width="90" height="90" viewBox="0 0 90 90" fill="none" xmlns="http://www.w3.org/2000/svg">
<path d="M47 86C70.7482 86 90 66.7482 90 43C90 19.2518 70.7482 0 47 0C23.2518 0 4 19.2518 4 43C4 66.7482 23.2518 86 47 86Z" fill="#363636"/>
<path d="M65.6974 25.3174H28.3026C25.3003 25.3174 22.8665 27.7512 22.8665 30.7535V55.2454C22.8665 58.2477 25.3003 60.6815 28.3026 60.6815H65.6983C68.7007 60.6815 71.1345 58.2477 71.1345 55.2454V30.7535C71.1335 27.7521 68.6997 25.3174 65.6974 25.3174ZM64.5278 54.9157C64.2459 55.2081 63.8703 55.3553 63.4948 55.3553C63.1374 55.3553 62.7791 55.2215 62.501 54.9549L53.5006 46.2928L52.204 47.7156C50.8719 49.1757 48.9761 50.0128 47 50.0128C45.0239 50.0128 43.1271 49.1757 41.796 47.7156L40.5185 46.3138L31.8974 54.9358C31.6184 55.2158 31.2505 55.3553 30.8836 55.3553C30.5167 55.3553 30.1497 55.2158 29.8698 54.9358C29.3098 54.3758 29.3098 53.469 29.8698 52.909L38.5844 44.1934L29.4464 34.1649C28.9132 33.5801 28.9553 32.6732 29.5401 32.14C30.1258 31.6068 31.0327 31.6489 31.5649 32.2337L43.9145 45.7835C44.7153 46.6626 45.8113 47.1461 47 47.1461C48.1887 47.1461 49.2857 46.6626 50.0855 45.7835L52.3998 43.2446L62.4351 32.2346C62.9692 31.6498 63.8751 31.6088 64.4599 32.141C65.0447 32.6742 65.0868 33.5801 64.5536 34.1658L55.4318 44.1743L64.4876 52.8899C65.0581 53.4384 65.0762 54.3452 64.5278 54.9157Z" fill="white"/>
</svg>
