<svg width="90" height="90" viewBox="0 0 90 90" fill="none" xmlns="http://www.w3.org/2000/svg">
<path d="M45 7.5C24.2888 7.5 7.5 24.2888 7.5 45C7.5 61.6631 18.3769 75.7706 33.4125 80.655H56.5875C71.6231 75.7706 82.5 61.6631 82.5 45C82.5 24.2888 65.7113 7.5 45 7.5Z" fill="url(#paint0_linear_2_54)"/>
<path opacity="0.05" d="M56.2688 78.7424L56.25 67.8712C56.25 66.1106 55.8375 64.3912 55.0462 62.8331C65.6231 60.7087 70.77 54.4556 70.77 43.7512C70.77 39.5231 69.5231 35.7899 67.065 32.6512C67.2525 32.0568 67.3913 31.4418 67.4775 30.8118C67.83 28.2449 67.4344 26.5668 67.1156 25.2168L67.065 24.9993C66.7163 23.5068 66.2981 22.4418 66.2812 22.3968L66.0731 21.8681L65.865 21.3393L65.2988 21.2793L64.7306 21.2193C64.7306 21.2193 64.3575 21.1799 63.7912 21.1799C63.0056 21.1799 61.8413 21.2587 60.7406 21.6318L60.3731 21.7556C58.9856 22.2224 57.675 22.6649 55.8413 23.7599C55.305 24.0806 54.7181 24.4462 54.09 24.8549C51.2513 24.1518 48.1969 23.7937 45 23.7937C41.7712 23.7937 38.6906 24.1537 35.8331 24.8643C35.1975 24.4518 34.6069 24.0824 34.0669 23.7599C32.2331 22.6649 30.9225 22.2243 29.535 21.7556L29.1675 21.6318C28.0706 21.2587 26.9044 21.1799 26.1188 21.1799C25.5525 21.1799 25.1794 21.2193 25.1794 21.2193L24.6131 21.2793L24.0506 21.3374L23.8406 21.8643L23.6288 22.3949C23.61 22.4437 23.1919 23.5087 22.8431 25.0031L22.7925 25.2187C22.4738 26.5668 22.0781 28.2468 22.4306 30.8118C22.5206 31.4606 22.665 32.0962 22.8619 32.7074C20.4525 35.8312 19.2319 39.5437 19.2319 43.7512C19.2319 54.4293 24.3844 60.6787 34.9762 62.8199C34.6125 63.5474 34.3294 64.3162 34.1287 65.1149C33.7594 65.2406 33.42 65.3249 33.12 65.3718C32.6737 65.4393 32.2069 65.4731 31.7344 65.4731C30.4481 65.4731 29.4375 65.2218 29.0437 64.9874C28.4569 64.6387 27.4088 63.6243 26.3925 62.1412C25.5244 60.8756 24.1706 59.2199 22.6575 58.5281C21.3487 57.9299 19.9631 57.5868 18.8531 57.5868C18.5944 57.5868 18.3562 57.6056 18.1481 57.6393C17.1787 57.7931 16.3687 58.3256 15.9281 59.1018C15.5475 59.7712 15.4875 60.5512 15.7631 61.2412C16.1737 62.2687 17.3588 63.0881 18.2812 63.5943C18.735 63.8437 19.7156 64.7549 20.2875 65.6737C20.7169 66.3637 20.9156 66.8549 21.1913 67.5337C21.3544 67.9368 21.5344 68.3756 21.7781 68.9062C22.6594 70.8224 25.41 72.5137 25.7213 72.6993C27.2325 73.6049 29.7731 73.8956 31.6406 73.9799L31.8712 73.9856H31.8731C32.3231 73.9856 32.9419 73.9424 33.7556 73.8524V78.7518C33.7594 79.7437 32.7488 79.9687 31.4119 79.9481L32.4375 80.2931C36.3656 81.6974 40.5844 82.4999 45 82.4999C49.4156 82.4999 53.6344 81.6974 57.5681 80.2949L58.8863 79.8037C57.5531 79.7587 56.28 79.5412 56.2688 78.7424Z" fill="black"/>
<path opacity="0.07" d="M57.7144 80.2443C56.9531 80.3324 55.3125 80.0399 55.3125 78.7537V67.8712C55.3125 65.8199 54.6975 63.8381 53.5575 62.1487C64.6481 60.3543 69.8306 54.4743 69.8306 43.7512C69.8306 39.5568 68.5444 35.8874 66.0075 32.8349C66.2644 32.1506 66.4444 31.4287 66.5475 30.6843C66.8756 28.2918 66.5175 26.7731 66.2025 25.4324L66.1519 25.2149C65.8181 23.7881 65.4244 22.7831 65.4075 22.7418L65.1994 22.2131L64.6312 22.1531C64.6312 22.1531 64.2975 22.1174 63.7894 22.1174C63.075 22.1174 62.0194 22.1868 61.0406 22.5206L60.6731 22.6443C59.3344 23.0962 58.0687 23.5218 56.3212 24.5643C55.6987 24.9356 55.005 25.3724 54.2569 25.8656C51.3825 25.1137 48.2719 24.7312 45 24.7312C41.6962 24.7312 38.5594 25.1156 35.6644 25.8749C34.9087 25.3781 34.2113 24.9393 33.585 24.5643C31.8375 23.5218 30.5719 23.0943 29.2331 22.6443L28.8656 22.5206C27.8888 22.1887 26.8312 22.1174 26.1169 22.1174C25.6087 22.1174 25.275 22.1531 25.275 22.1531L24.7088 22.2131L24.4969 22.7437C24.48 22.7849 24.0862 23.7899 23.7525 25.2168L23.7019 25.4343C23.385 26.7749 23.0269 28.2918 23.3569 30.6843C23.4619 31.4474 23.6494 32.1862 23.9156 32.8856C21.4275 35.9231 20.1675 39.5737 20.1675 43.7512C20.1675 54.4443 25.3537 60.3224 36.4537 62.1374C35.7131 63.2437 35.1956 64.4906 34.9294 65.8199C34.3106 66.0637 33.75 66.2249 33.2588 66.2999C32.7656 66.3749 32.2519 66.4124 31.7325 66.4124C30.4387 66.4124 29.1956 66.1706 28.5638 65.7956C27.7388 65.3062 26.5819 64.0818 25.6162 62.6737C24.96 61.7174 23.6531 60.0168 22.2637 59.3831C21.0731 58.8393 19.83 58.5262 18.8494 58.5262C18.6431 58.5262 18.4556 58.5412 18.2906 58.5674C17.6044 58.6762 17.0381 59.0399 16.7381 59.5687C16.4981 59.9887 16.4587 60.4743 16.6275 60.8962C16.9631 61.7362 18.2063 62.4899 18.7256 62.7749C19.3538 63.1199 20.4487 64.1699 21.0769 65.1824C21.5475 65.9399 21.7706 66.4893 22.0537 67.1831C22.2131 67.5749 22.3875 68.0024 22.6237 68.5181C23.2444 69.8662 25.1606 71.2781 26.1956 71.8987C27.6094 72.7462 30.2344 72.9824 31.6744 73.0462L31.8825 73.0499C32.4431 73.0499 33.3825 72.9656 34.6856 72.7968V78.7537C34.6856 80.2143 32.8275 80.2724 32.3719 80.2724C32.3137 80.2724 33.315 80.6174 33.315 80.6174C36.9956 81.8249 40.9163 82.4999 45 82.4999C49.0837 82.4999 53.0044 81.8249 56.6831 80.6193C56.6831 80.6193 57.7725 80.2368 57.7144 80.2443Z" fill="black"/>
<path d="M68.895 43.7512C68.895 39.4199 67.4287 35.8274 64.9256 33.0112C65.1975 32.4018 65.4806 31.5843 65.6213 30.5568C65.9438 28.213 65.5631 26.8068 65.2406 25.4305C64.9181 24.0543 64.5375 23.0868 64.5375 23.0868C64.5375 23.0868 62.8088 22.9105 61.3444 23.4093C59.88 23.908 58.62 24.2887 56.8031 25.3724C55.9538 25.8787 55.0988 26.4337 54.4219 26.8837C51.5288 26.0812 48.3469 25.6687 45 25.6687C41.6231 25.6687 38.4131 26.083 35.4994 26.8912C34.8206 26.4393 33.96 25.8805 33.105 25.3705C31.2881 24.2868 30.0281 23.9062 28.5638 23.4074C27.0994 22.9087 25.3706 23.0849 25.3706 23.0849C25.3706 23.0849 24.99 24.0524 24.6675 25.4287C24.345 26.8049 23.9644 28.2112 24.2869 30.5549C24.4313 31.6087 24.7238 32.4412 25.0031 33.0543C22.5469 35.8537 21.1069 39.4237 21.1069 43.7493C21.1069 54.9674 27.1669 60.088 38.2088 61.4399C36.9206 62.8012 36.0563 64.5449 35.7656 66.4855C35.04 66.8043 34.2038 67.1043 33.3994 67.2243C31.3294 67.5374 29.1413 67.2243 28.0875 66.5999C27.0338 65.9755 25.7831 64.5693 24.8456 63.2005C24.0544 62.0455 22.9125 60.7049 21.8775 60.2324C20.5106 59.608 19.1813 59.3737 18.4406 59.4899C17.6981 59.608 17.3475 60.1537 17.5031 60.5455C17.6588 60.9355 18.4013 61.5224 19.1831 61.9518C19.965 62.3812 21.1763 63.553 21.8794 64.6855C22.6631 65.9493 22.8169 66.6787 23.4806 68.1224C23.9475 69.1387 25.545 70.408 26.6831 71.0905C27.66 71.6774 29.6119 72.0112 31.7231 72.1068C32.4525 72.1405 34.1756 71.9268 35.6288 71.7205V78.7518C35.6288 79.9499 34.5319 80.8612 33.3956 80.6512C37.0425 81.8774 40.9369 82.4999 45 82.4999C49.0613 82.4999 52.9556 81.8774 56.6063 80.6549C55.4719 80.863 54.375 79.9518 54.375 78.7537V67.8712C54.375 65.3793 53.3869 63.1274 51.8006 61.4493C62.7619 60.133 68.895 55.1343 68.895 43.7512ZM21.0731 61.363C20.7844 61.2149 20.6288 60.9412 20.7263 60.748C20.8238 60.5549 21.1388 60.5193 21.4275 60.6674C21.7163 60.8155 21.8719 61.0893 21.7744 61.2824C21.6769 61.4755 21.3619 61.5112 21.0731 61.363ZM23.3456 62.7787C23.1938 62.9437 22.8675 62.8912 22.6163 62.6624C22.365 62.4337 22.2844 62.113 22.4363 61.948C22.5881 61.783 22.9144 61.8355 23.1656 62.0643C23.4169 62.293 23.4975 62.6137 23.3456 62.7787ZM24.7594 65.1224C24.5681 65.2574 24.2438 65.1318 24.0356 64.8412C23.8275 64.5505 23.8144 64.2037 24.0056 64.0687C24.1969 63.9337 24.5213 64.0593 24.7294 64.3499C24.9356 64.6405 24.9506 64.9874 24.7594 65.1224ZM26.79 66.8868C26.6606 67.0968 26.2931 67.1062 25.9706 66.9093C25.6481 66.7124 25.4906 66.3824 25.62 66.1724C25.7494 65.9624 26.1169 65.953 26.4394 66.1499C26.7619 66.3468 26.9194 66.6768 26.79 66.8868ZM28.71 68.6137C28.3106 68.5649 28.0144 68.3155 28.0481 68.0568C28.08 67.798 28.4306 67.6293 28.8281 67.678C29.2275 67.7268 29.5238 67.9762 29.49 68.2349C29.4581 68.4918 29.1094 68.6624 28.71 68.6137ZM31.8056 69.0618C31.38 69.0374 31.0481 68.7937 31.065 68.5199C31.0819 68.2462 31.44 68.0418 31.8656 68.0662C32.2913 68.0905 32.6231 68.3343 32.6062 68.608C32.5894 68.8837 32.2312 69.0862 31.8056 69.0618ZM34.7269 68.7693C34.2731 68.7693 33.9056 68.533 33.9056 68.2424C33.9056 67.9518 34.2731 67.7155 34.7269 67.7155C35.1806 67.7155 35.5481 67.9518 35.5481 68.2424C35.5481 68.533 35.1788 68.7693 34.7269 68.7693Z" fill="white"/>
<defs>
<linearGradient id="paint0_linear_2_54" x1="7.5" y1="44.0775" x2="82.5" y2="44.0775" gradientUnits="userSpaceOnUse">
<stop stop-color="#4C4C4C"/>
<stop offset="1" stop-color="#343434"/>
</linearGradient>
</defs>
</svg>
