<svg width="90" height="90" viewBox="0 0 90 90" fill="none" xmlns="http://www.w3.org/2000/svg">
<path d="M78.75 69.375C78.75 74.5537 74.5537 78.75 69.375 78.75H20.625C15.4481 78.75 11.25 74.5537 11.25 69.375V20.625C11.25 15.4462 15.4481 11.25 20.625 11.25H69.375C74.5537 11.25 78.75 15.4462 78.75 20.625V69.375Z" fill="#404040"/>
<path d="M22.5 35.625H31.875V67.5H22.5V35.625ZM27.1594 31.875H27.1069C24.3094 31.875 22.5 29.79 22.5 27.1856C22.5 24.525 24.3656 22.5 27.2137 22.5C30.0656 22.5 31.8225 24.525 31.875 27.1856C31.875 29.7881 30.0656 31.875 27.1594 31.875ZM67.5 67.5H58.125V50.4394C58.125 46.3181 55.8281 43.5056 52.14 43.5056C49.3256 43.5056 47.8031 45.4031 47.0644 47.2369C46.7944 47.8931 46.875 49.7081 46.875 50.625V67.5H37.5V35.625H46.875V40.53C48.2269 38.4375 50.3438 35.625 55.7588 35.625C62.4675 35.625 67.4981 39.8438 67.4981 49.2638L67.5 67.5Z" fill="white"/>
</svg>
