<svg width="51" height="16" viewBox="0 0 51 16" fill="none" xmlns="http://www.w3.org/2000/svg">
<path d="M0 0H51V16H0V0Z" fill="black"/>
<path d="M0 16C1.47978 16 2.32537 14.425 2.85386 13.075C3.38235 11.95 3.59375 11.5 4.22794 11.5C4.86213 11.5 5.07353 11.95 5.60202 13.075C6.13051 14.425 6.9761 16 8.45588 16C9.93566 16 10.7812 14.425 11.3097 13.075C11.8382 11.95 12.0496 11.5 12.6838 11.5C13.318 11.5 13.5294 11.95 14.0579 13.075C14.5864 14.425 15.432 16 16.9118 16V11.5C16.2776 11.5 16.0662 11.05 15.5377 9.925C15.0092 8.575 14.1636 7 12.6838 7C11.204 7 10.3585 8.575 9.82996 9.925C9.30147 11.05 9.09007 11.5 8.45588 11.5C7.82169 11.5 7.61029 11.05 7.0818 9.925C6.55331 8.575 5.70772 7 4.22794 7C2.74816 7 1.90257 8.575 1.37408 9.925C0.845588 11.05 0.634191 11.5 0 11.5V16Z" fill="#0BAFF2"/>
<path d="M34 16C35.4798 16 36.3254 14.425 36.8539 13.075C37.3824 11.95 37.5938 11.5 38.2279 11.5C38.8621 11.5 39.0735 11.95 39.602 13.075C40.1305 14.425 40.9761 16 42.4559 16C43.9357 16 44.7812 14.425 45.3097 13.075C45.8382 11.95 46.0496 11.5 46.6838 11.5C47.318 11.5 47.5294 11.95 48.0579 13.075C48.5864 14.425 49.432 16 50.9118 16V11.5C50.2776 11.5 50.0662 11.05 49.5377 9.925C49.0092 8.575 48.1636 7 46.6838 7C45.204 7 44.3585 8.575 43.83 9.925C43.3015 11.05 43.0901 11.5 42.4559 11.5C41.8217 11.5 41.6103 11.05 41.0818 9.925C40.5533 8.575 39.7077 7 38.2279 7C36.7482 7 35.9026 8.575 35.3741 9.925C34.8456 11.05 34.6342 11.5 34 11.5V16Z" fill="#0BAFF2"/>
<path d="M17 16C18.4798 16 19.3254 14.425 19.8539 13.075C20.3824 11.95 20.5938 11.5 21.2279 11.5C21.8621 11.5 22.0735 11.95 22.602 13.075C23.1305 14.425 23.9761 16 25.4559 16C26.9357 16 27.7812 14.425 28.3097 13.075C28.8382 11.95 29.0496 11.5 29.6838 11.5C30.318 11.5 30.5294 11.95 31.0579 13.075C31.5864 14.425 32.432 16 33.9118 16V11.5C33.2776 11.5 33.0662 11.05 32.5377 9.925C32.0092 8.575 31.1636 7 29.6838 7C28.204 7 27.3585 8.575 26.83 9.925C26.3015 11.05 26.0901 11.5 25.4559 11.5C24.8217 11.5 24.6103 11.05 24.0818 9.925C23.5533 8.575 22.7077 7 21.2279 7C19.7482 7 18.9026 8.575 18.3741 9.925C17.8456 11.05 17.6342 11.5 17 11.5V16Z" fill="#0BAFF2"/>
</svg>
