<svg width="90" height="90" viewBox="0 0 90 90" fill="none" xmlns="http://www.w3.org/2000/svg">
<path d="M45 7.5C35.0544 7.5 25.5161 11.4509 18.4835 18.4835C11.4509 25.5161 7.5 35.0544 7.5 45C7.5 54.9456 11.4509 64.4839 18.4835 71.5165C25.5161 78.5491 35.0544 82.5 45 82.5C54.9456 82.5 64.4839 78.5491 71.5165 71.5165C78.5491 64.4839 82.5 54.9456 82.5 45C82.5 35.0544 78.5491 25.5161 71.5165 18.4835C64.4839 11.4509 54.9456 7.5 45 7.5Z" fill="#363636"/>
<path d="M67.5 32.1C65.8462 32.8331 63.7519 33.5212 61.875 33.75C63.7837 32.6175 66.8119 30.2587 67.5 28.125C65.7169 29.1731 62.4919 30.2925 60.3881 30.6975C58.7081 28.9162 56.3119 28.125 53.6569 28.125C48.5569 28.125 45 32.4469 45 37.5V41.25C37.5 41.25 30.1875 35.5369 25.6369 30C24.8363 31.3519 24.3862 32.9344 24.3862 34.6069C24.3862 38.0175 27.5194 41.4788 30 43.125C28.4869 43.0781 25.6219 41.9231 24.375 41.25C24.375 41.28 24.375 41.3175 24.375 41.3569C24.375 45.795 27.4894 48.8081 31.71 49.6481C30.9394 49.86 30 50.625 26.385 50.625C27.5587 54.2531 33.4594 56.1712 37.5 56.25C34.3387 58.7006 28.7025 60 24.375 60C23.6269 60 23.2219 60.0412 22.5 59.9569C26.5837 62.5444 32.2875 63.75 37.5 63.75C54.4819 63.75 63.75 50.7787 63.75 38.6812C63.75 38.2837 63.7369 36.9525 63.7162 36.5625C65.5312 35.2838 66.2663 33.945 67.5 32.1Z" fill="white"/>
</svg>
