<svg width="358" height="130" viewBox="0 0 358 130" fill="none" xmlns="http://www.w3.org/2000/svg">
<rect y="37" width="276" height="93" fill="#E71724"/>
<path d="M280 109.006C281.628 109.006 282.558 107.08 283.139 105.429C283.721 104.053 283.953 103.503 284.651 103.503C285.348 103.503 285.581 104.053 286.162 105.429C286.744 107.08 287.674 109.006 289.301 109.006C290.929 109.006 291.859 107.08 292.441 105.429C293.022 104.053 293.255 103.503 293.952 103.503C294.65 103.503 294.882 104.053 295.464 105.429C296.045 107.08 296.975 109.006 298.603 109.006V103.503C297.905 103.503 297.673 102.953 297.091 101.577C296.51 99.926 295.58 98 293.952 98C292.324 98 291.394 99.926 290.813 101.577C290.232 102.953 289.999 103.503 289.301 103.503C288.604 103.503 288.371 102.953 287.79 101.577C287.209 99.926 286.278 98 284.651 98C283.023 98 282.093 99.926 281.511 101.577C280.93 102.953 280.698 103.503 280 103.503V109.006Z" fill="#FBE801"/>
<path d="M298.199 109.006C299.826 109.006 300.756 107.08 301.338 105.429C301.919 104.053 302.152 103.503 302.849 103.503C303.547 103.503 303.779 104.053 304.361 105.429C304.942 107.08 305.872 109.006 307.5 109.006C309.128 109.006 310.058 107.08 310.639 105.429C311.221 104.053 311.453 103.503 312.151 103.503C312.848 103.503 313.081 104.053 313.662 105.429C314.244 107.08 315.174 109.006 316.801 109.006V103.503C316.104 103.503 315.871 102.953 315.29 101.577C314.709 99.926 313.778 98 312.151 98C310.523 98 309.593 99.926 309.011 101.577C308.43 102.953 308.198 103.503 307.5 103.503C306.802 103.503 306.57 102.953 305.989 101.577C305.407 99.926 304.477 98 302.849 98C301.222 98 300.291 99.926 299.71 101.577C299.129 102.953 298.896 103.503 298.199 103.503V109.006Z" fill="#FBE801"/>
<path d="M316.397 109.006C318.025 109.006 318.955 107.08 319.536 105.429C320.118 104.053 320.35 103.503 321.048 103.503C321.745 103.503 321.978 104.053 322.559 105.429C323.141 107.08 324.071 109.006 325.699 109.006C327.326 109.006 328.256 107.08 328.838 105.429C329.419 104.053 329.652 103.503 330.349 103.503C331.047 103.503 331.279 104.053 331.861 105.429C332.442 107.08 333.372 109.006 335 109.006V103.503C334.302 103.503 334.07 102.953 333.489 101.577C332.907 99.926 331.977 98 330.349 98C328.722 98 327.791 99.926 327.21 101.577C326.629 102.953 326.396 103.503 325.699 103.503C325.001 103.503 324.768 102.953 324.187 101.577C323.606 99.926 322.676 98 321.048 98C319.42 98 318.49 99.926 317.909 101.577C317.327 102.953 317.095 103.503 316.397 103.503V109.006Z" fill="#FBE801"/>
<path d="M43.48 94.3C36.6333 94.3 31.39 92.35 27.75 88.45C24.1967 84.55 22.42 79.0467 22.42 71.94V23.06C22.42 15.9533 24.1967 10.45 27.75 6.55C31.39 2.65 36.6333 0.699995 43.48 0.699995C50.3267 0.699995 55.5267 2.65 59.08 6.55C62.72 10.45 64.54 15.9533 64.54 23.06V32.68H51.02V22.15C51.02 16.5167 48.6367 13.7 43.87 13.7C39.1033 13.7 36.72 16.5167 36.72 22.15V72.98C36.72 78.5267 39.1033 81.3 43.87 81.3C48.6367 81.3 51.02 78.5267 51.02 72.98V59.07H64.54V71.94C64.54 79.0467 62.72 84.55 59.08 88.45C55.5267 92.35 50.3267 94.3 43.48 94.3ZM91.4195 94.3C84.3995 94.3 79.0262 92.3067 75.2995 88.32C71.5729 84.3333 69.7095 78.7 69.7095 71.42V23.58C69.7095 16.3 71.5729 10.6667 75.2995 6.68C79.0262 2.69333 84.3995 0.699995 91.4195 0.699995C98.4395 0.699995 103.813 2.69333 107.54 6.68C111.266 10.6667 113.13 16.3 113.13 23.58V71.42C113.13 78.7 111.266 84.3333 107.54 88.32C103.813 92.3067 98.4395 94.3 91.4195 94.3ZM91.4195 81.3C96.3595 81.3 98.8295 78.31 98.8295 72.33V22.67C98.8295 16.69 96.3595 13.7 91.4195 13.7C86.4795 13.7 84.0095 16.69 84.0095 22.67V72.33C84.0095 78.31 86.4795 81.3 91.4195 81.3ZM120.2 1.99999H138.14L152.05 56.47H152.31V1.99999H165.05V93H150.36L133.2 26.57H132.94V93H120.2V1.99999ZM184.259 15H169.309V1.99999H213.509V15H198.559V93H184.259V15ZM222.916 1.99999H242.286L257.106 93H242.806L240.206 74.93V75.19H223.956L221.356 93H208.096L222.916 1.99999ZM238.516 62.84L232.146 17.86H231.886L225.646 62.84H238.516ZM281.339 94.3C274.493 94.3 269.249 92.35 265.609 88.45C262.056 84.55 260.279 79.0467 260.279 71.94V23.06C260.279 15.9533 262.056 10.45 265.609 6.55C269.249 2.65 274.493 0.699995 281.339 0.699995C288.186 0.699995 293.386 2.65 296.939 6.55C300.579 10.45 302.399 15.9533 302.399 23.06V32.68H288.879V22.15C288.879 16.5167 286.496 13.7 281.729 13.7C276.963 13.7 274.579 16.5167 274.579 22.15V72.98C274.579 78.5267 276.963 81.3 281.729 81.3C286.496 81.3 288.879 78.5267 288.879 72.98V59.07H302.399V71.94C302.399 79.0467 300.579 84.55 296.939 88.45C293.386 92.35 288.186 94.3 281.339 94.3ZM319.535 15H304.585V1.99999H348.785V15H333.835V93H319.535V15Z" fill="white"/>
</svg>
