<svg width="528" height="123" viewBox="0 0 528 123" fill="none" xmlns="http://www.w3.org/2000/svg">
<path d="M71 12.9999H101V58.9999H71V12.9999Z" fill="#FBE801"/>
<path d="M0.970001 1.99993H50.44V18.9999H19.67V52.1499H43.81V69.1499H19.67V121H0.970001V1.99993Z" fill="white"/>
<path d="M56.0075 1.99993H83.7175C93.3508 1.99993 100.378 4.26659 104.798 8.79993C109.217 13.2199 111.428 20.0766 111.428 29.3699V36.6799C111.428 49.0333 107.348 56.8533 99.1875 60.1399V60.4799C103.721 61.8399 106.894 64.6166 108.708 68.8099C110.634 73.0033 111.598 78.6133 111.598 85.6399V106.55C111.598 109.95 111.711 112.727 111.938 114.88C112.164 116.92 112.731 118.96 113.638 121H94.5975C93.9175 119.073 93.4642 117.26 93.2375 115.56C93.0108 113.86 92.8975 110.8 92.8975 106.38V84.6199C92.8975 79.1799 91.9908 75.3833 90.1775 73.2299C88.4775 71.0766 85.4742 69.9999 81.1675 69.9999H74.7075V121H56.0075V1.99993ZM81.5075 52.9999C85.2475 52.9999 88.0242 52.0366 89.8375 50.1099C91.7642 48.1833 92.7275 44.9533 92.7275 40.4199V31.2399C92.7275 26.9333 91.9342 23.8166 90.3475 21.8899C88.8742 19.9633 86.4942 18.9999 83.2075 18.9999H74.7075V52.9999H81.5075Z" fill="white"/>
<path d="M148.202 122.7C139.022 122.7 131.995 120.093 127.122 114.88C122.249 109.667 119.812 102.3 119.812 92.7799V30.2199C119.812 20.6999 122.249 13.3333 127.122 8.11993C131.995 2.90659 139.022 0.299927 148.202 0.299927C157.382 0.299927 164.409 2.90659 169.282 8.11993C174.155 13.3333 176.592 20.6999 176.592 30.2199V92.7799C176.592 102.3 174.155 109.667 169.282 114.88C164.409 120.093 157.382 122.7 148.202 122.7ZM148.202 105.7C154.662 105.7 157.892 101.79 157.892 93.9699V29.0299C157.892 21.2099 154.662 17.2999 148.202 17.2999C141.742 17.2999 138.512 21.2099 138.512 29.0299V93.9699C138.512 101.79 141.742 105.7 148.202 105.7Z" fill="white"/>
<path d="M185.838 1.99993H209.298L227.488 73.2299H227.828V1.99993H244.488V121H225.278L202.838 34.1299H202.498V121H185.838V1.99993Z" fill="white"/>
<path d="M269.607 18.9999H250.057V1.99993H307.857V18.9999H288.307V121H269.607V18.9999Z" fill="white"/>
<path d="M298.34 52.9999H335.74V69.9999H298.34V52.9999Z" fill="white"/>
<path d="M343.48 1.99993H394.48V18.9999H362.18V50.4499H387.85V67.4499H362.18V104H394.48V121H343.48V1.99993Z" fill="white"/>
<path d="M401.838 1.99993H425.298L443.488 73.2299H443.828V1.99993H460.488V121H441.278L418.838 34.1299H418.498V121H401.838V1.99993Z" fill="white"/>
<path d="M470.987 1.99993H499.547C508.84 1.99993 515.81 4.49326 520.457 9.47993C525.103 14.4666 527.427 21.7766 527.427 31.4099V91.5899C527.427 101.223 525.103 108.533 520.457 113.52C515.81 118.507 508.84 121 499.547 121H470.987V1.99993ZM499.207 104C502.267 104 504.59 103.093 506.177 101.28C507.877 99.4666 508.727 96.5199 508.727 92.4399V30.5599C508.727 26.4799 507.877 23.5333 506.177 21.7199C504.59 19.9066 502.267 18.9999 499.207 18.9999H489.687V104H499.207Z" fill="white"/>
</svg>
