<svg width="384" height="131" viewBox="0 0 384 131" fill="none" xmlns="http://www.w3.org/2000/svg">
<path d="M0 51H314V131H0V51Z" fill="#0BAFF2"/>
<path d="M318 112.006C319.628 112.006 320.558 110.08 321.139 108.429C321.721 107.053 321.953 106.503 322.651 106.503C323.348 106.503 323.581 107.053 324.162 108.429C324.744 110.08 325.674 112.006 327.301 112.006C328.929 112.006 329.859 110.08 330.441 108.429C331.022 107.053 331.255 106.503 331.952 106.503C332.65 106.503 332.882 107.053 333.464 108.429C334.045 110.08 334.975 112.006 336.603 112.006V106.503C335.905 106.503 335.673 105.953 335.091 104.577C334.51 102.926 333.58 101 331.952 101C330.324 101 329.394 102.926 328.813 104.577C328.232 105.953 327.999 106.503 327.301 106.503C326.604 106.503 326.371 105.953 325.79 104.577C325.209 102.926 324.278 101 322.651 101C321.023 101 320.093 102.926 319.511 104.577C318.93 105.953 318.698 106.503 318 106.503V112.006Z" fill="#FBE801"/>
<path d="M336.199 112.006C337.826 112.006 338.756 110.08 339.338 108.429C339.919 107.053 340.152 106.503 340.849 106.503C341.547 106.503 341.779 107.053 342.361 108.429C342.942 110.08 343.872 112.006 345.5 112.006C347.128 112.006 348.058 110.08 348.639 108.429C349.221 107.053 349.453 106.503 350.151 106.503C350.848 106.503 351.081 107.053 351.662 108.429C352.244 110.08 353.174 112.006 354.801 112.006V106.503C354.104 106.503 353.871 105.953 353.29 104.577C352.709 102.926 351.778 101 350.151 101C348.523 101 347.593 102.926 347.011 104.577C346.43 105.953 346.198 106.503 345.5 106.503C344.802 106.503 344.57 105.953 343.989 104.577C343.407 102.926 342.477 101 340.849 101C339.222 101 338.291 102.926 337.71 104.577C337.129 105.953 336.896 106.503 336.199 106.503V112.006Z" fill="#FBE801"/>
<path d="M354.397 112.006C356.025 112.006 356.955 110.08 357.536 108.429C358.118 107.053 358.35 106.503 359.048 106.503C359.745 106.503 359.978 107.053 360.559 108.429C361.141 110.08 362.071 112.006 363.699 112.006C365.326 112.006 366.256 110.08 366.838 108.429C367.419 107.053 367.652 106.503 368.349 106.503C369.047 106.503 369.279 107.053 369.861 108.429C370.442 110.08 371.372 112.006 373 112.006V106.503C372.302 106.503 372.07 105.953 371.489 104.577C370.907 102.926 369.977 101 368.349 101C366.722 101 365.791 102.926 365.21 104.577C364.629 105.953 364.396 106.503 363.699 106.503C363.001 106.503 362.768 105.953 362.187 104.577C361.606 102.926 360.676 101 359.048 101C357.42 101 356.49 102.926 355.909 104.577C355.327 105.953 355.095 106.503 354.397 106.503V112.006Z" fill="#FBE801"/>
<path d="M24.33 1.99999H45.39C52.4967 1.99999 57.8267 3.90666 61.38 7.72C64.9333 11.5333 66.71 17.1233 66.71 24.49V33.46C66.71 40.8267 64.9333 46.4167 61.38 50.23C57.8267 54.0433 52.4967 55.95 45.39 55.95H38.63V93H24.33V1.99999ZM45.39 42.95C47.73 42.95 49.4633 42.3 50.59 41C51.8033 39.7 52.41 37.49 52.41 34.37V23.58C52.41 20.46 51.8033 18.25 50.59 16.95C49.4633 15.65 47.73 15 45.39 15H38.63V42.95H45.39ZM71.8765 1.99999H93.0665C100.433 1.99999 105.806 3.73333 109.186 7.2C112.566 10.58 114.256 15.8233 114.256 22.93V28.52C114.256 37.9667 111.136 43.9467 104.896 46.46V46.72C108.363 47.76 110.79 49.8833 112.176 53.09C113.65 56.2967 114.386 60.5867 114.386 65.96V81.95C114.386 84.55 114.473 86.6733 114.646 88.32C114.82 89.88 115.253 91.44 115.946 93H101.386C100.866 91.5267 100.52 90.14 100.346 88.84C100.173 87.54 100.086 85.2 100.086 81.82V65.18C100.086 61.02 99.3932 58.1167 98.0065 56.47C96.7065 54.8233 94.4098 54 91.1165 54H86.1765V93H71.8765V1.99999ZM91.3765 41C94.2365 41 96.3598 40.2633 97.7465 38.79C99.2198 37.3167 99.9565 34.8467 99.9565 31.38V24.36C99.9565 21.0667 99.3498 18.6833 98.1365 17.21C97.0098 15.7367 95.1898 15 92.6765 15H86.1765V41H91.3765ZM142.378 94.3C135.358 94.3 129.985 92.3067 126.258 88.32C122.531 84.3333 120.668 78.7 120.668 71.42V23.58C120.668 16.3 122.531 10.6667 126.258 6.68C129.985 2.69333 135.358 0.699995 142.378 0.699995C149.398 0.699995 154.771 2.69333 158.498 6.68C162.225 10.6667 164.088 16.3 164.088 23.58V71.42C164.088 78.7 162.225 84.3333 158.498 88.32C154.771 92.3067 149.398 94.3 142.378 94.3ZM142.378 81.3C147.318 81.3 149.788 78.31 149.788 72.33V22.67C149.788 16.69 147.318 13.7 142.378 13.7C137.438 13.7 134.968 16.69 134.968 22.67V72.33C134.968 78.31 137.438 81.3 142.378 81.3ZM174.031 93.52C171.431 93.52 169.221 93.3467 167.401 93V80C168.788 80.3467 170.348 80.52 172.081 80.52C174.941 80.52 177.064 79.8267 178.451 78.44C179.838 76.9667 180.531 74.7567 180.531 71.81V1.99999H194.831V71.42C194.831 78.8733 193.098 84.42 189.631 88.06C186.251 91.7 181.051 93.52 174.031 93.52ZM202.455 1.99999H241.455V15H216.755V39.05H236.385V52.05H216.755V80H241.455V93H202.455V1.99999ZM267.232 94.3C260.385 94.3 255.142 92.35 251.502 88.45C247.949 84.55 246.172 79.0467 246.172 71.94V23.06C246.172 15.9533 247.949 10.45 251.502 6.55C255.142 2.65 260.385 0.699995 267.232 0.699995C274.079 0.699995 279.279 2.65 282.832 6.55C286.472 10.45 288.292 15.9533 288.292 23.06V32.68H274.772V22.15C274.772 16.5167 272.389 13.7 267.622 13.7C262.855 13.7 260.472 16.5167 260.472 22.15V72.98C260.472 78.5267 262.855 81.3 267.622 81.3C272.389 81.3 274.772 78.5267 274.772 72.98V59.07H288.292V71.94C288.292 79.0467 286.472 84.55 282.832 88.45C279.279 92.35 274.079 94.3 267.232 94.3ZM305.428 15H290.478V1.99999H334.678V15H319.728V93H305.428V15ZM357.591 94.3C350.658 94.3 345.414 92.35 341.861 88.45C338.308 84.4633 336.531 78.7867 336.531 71.42V66.22H350.051V72.46C350.051 78.3533 352.521 81.3 357.461 81.3C359.888 81.3 361.708 80.6067 362.921 79.22C364.221 77.7467 364.871 75.4067 364.871 72.2C364.871 68.3867 364.004 65.05 362.271 62.19C360.538 59.2433 357.331 55.7333 352.651 51.66C346.758 46.46 342.641 41.78 340.301 37.62C337.961 33.3733 336.791 28.6067 336.791 23.32C336.791 16.1267 338.611 10.58 342.251 6.68C345.891 2.69333 351.178 0.699995 358.111 0.699995C364.958 0.699995 370.114 2.69333 373.581 6.68C377.134 10.58 378.911 16.2133 378.911 23.58V27.35H365.391V22.67C365.391 19.55 364.784 17.2967 363.571 15.91C362.358 14.4367 360.581 13.7 358.241 13.7C353.474 13.7 351.091 16.6033 351.091 22.41C351.091 25.7033 351.958 28.78 353.691 31.64C355.511 34.5 358.761 37.9667 363.441 42.04C369.421 47.24 373.538 51.9633 375.791 56.21C378.044 60.4567 379.171 65.44 379.171 71.16C379.171 78.6133 377.308 84.3333 373.581 88.32C369.941 92.3067 364.611 94.3 357.591 94.3Z" fill="white"/>
</svg>
