<svg width="276" height="130" viewBox="0 0 276 130" fill="none" xmlns="http://www.w3.org/2000/svg">
<path d="M0 78.5L11.25 84.9952L11.25 72.0048L0 78.5Z" fill="#E71724"/>
<path d="M0 89.5L11.25 95.9952L11.25 83.0048L0 89.5Z" fill="#E71724"/>
<path d="M0 100.5L11.25 106.995L11.25 94.0048L0 100.5Z" fill="#E71724"/>
<path d="M0 111.5L11.25 117.995L11.25 105.005L0 111.5Z" fill="#E71724"/>
<path d="M0 122.5L11.25 128.995L11.25 116.005L0 122.5Z" fill="#E71724"/>
<path d="M15 48H235V128H15V48Z" fill="#FBE801"/>
<path d="M45.38 1.99999H64.75L79.57 93H65.27L62.67 74.93V75.19H46.42L43.82 93H30.56L45.38 1.99999ZM60.98 62.84L54.61 17.86H54.35L48.11 62.84H60.98ZM83.9077 1.99999H105.488C112.854 1.99999 118.228 3.73333 121.608 7.2C124.988 10.58 126.678 15.8233 126.678 22.93V26.57C126.678 31.25 125.898 35.0633 124.338 38.01C122.864 40.9567 120.568 43.08 117.448 44.38V44.64C124.554 47.0667 128.108 53.3933 128.108 63.62V71.42C128.108 78.44 126.244 83.8133 122.518 87.54C118.878 91.18 113.504 93 106.398 93H83.9077V1.99999ZM103.798 39.05C106.658 39.05 108.781 38.3133 110.168 36.84C111.641 35.3667 112.378 32.8967 112.378 29.43V24.36C112.378 21.0667 111.771 18.6833 110.558 17.21C109.431 15.7367 107.611 15 105.098 15H98.2077V39.05H103.798ZM106.398 80C108.911 80 110.774 79.35 111.988 78.05C113.201 76.6633 113.808 74.3233 113.808 71.03V63.1C113.808 58.94 113.071 56.08 111.598 54.52C110.211 52.8733 107.871 52.05 104.578 52.05H98.2077V80H106.398ZM154.536 94.3C147.516 94.3 142.143 92.3067 138.416 88.32C134.69 84.3333 132.826 78.7 132.826 71.42V23.58C132.826 16.3 134.69 10.6667 138.416 6.68C142.143 2.69333 147.516 0.699995 154.536 0.699995C161.556 0.699995 166.93 2.69333 170.656 6.68C174.383 10.6667 176.246 16.3 176.246 23.58V71.42C176.246 78.7 174.383 84.3333 170.656 88.32C166.93 92.3067 161.556 94.3 154.536 94.3ZM154.536 81.3C159.476 81.3 161.946 78.31 161.946 72.33V22.67C161.946 16.69 159.476 13.7 154.536 13.7C149.596 13.7 147.126 16.69 147.126 22.67V72.33C147.126 78.31 149.596 81.3 154.536 81.3ZM204.117 94.3C197.184 94.3 191.897 92.35 188.257 88.45C184.617 84.4633 182.797 78.7867 182.797 71.42V1.99999H197.097V72.46C197.097 75.58 197.704 77.8333 198.917 79.22C200.217 80.6067 202.037 81.3 204.377 81.3C206.717 81.3 208.494 80.6067 209.707 79.22C211.007 77.8333 211.657 75.58 211.657 72.46V1.99999H225.437V71.42C225.437 78.7867 223.617 84.4633 219.977 88.45C216.337 92.35 211.05 94.3 204.117 94.3ZM244.202 15H229.252V1.99999H273.452V15H258.502V93H244.202V15Z" fill="white"/>
</svg>
