<svg width="55" height="12" viewBox="0 0 55 12" fill="none" xmlns="http://www.w3.org/2000/svg">
<path d="M0 11.0059C1.62776 11.0059 2.55791 9.07988 3.13925 7.429C3.72059 6.05326 3.95313 5.50296 4.65074 5.50296C5.34835 5.50296 5.58088 6.05326 6.16222 7.429C6.74357 9.07988 7.67371 11.0059 9.30147 11.0059C10.9292 11.0059 11.8594 9.07988 12.4407 7.429C13.0221 6.05326 13.2546 5.50296 13.9522 5.50296C14.6498 5.50296 14.8824 6.05326 15.4637 7.429C16.045 9.07988 16.9752 11.0059 18.6029 11.0059V5.50296C17.9053 5.50296 17.6728 4.95266 17.0915 3.57692C16.5101 1.92603 15.58 0 13.9522 0C12.3244 0 11.3943 1.92603 10.813 3.57692C10.2316 4.95266 9.99908 5.50296 9.30147 5.50296C8.60386 5.50296 8.37132 4.95266 7.78998 3.57692C7.20864 1.92603 6.27849 0 4.65074 0C3.02298 0 2.09283 1.92603 1.51149 3.57692C0.930147 4.95266 0.69761 5.50296 0 5.50296V11.0059Z" fill="white"/>
<path d="M18.1985 11.0059C19.8263 11.0059 20.7564 9.07988 21.3378 7.429C21.9191 6.05326 22.1517 5.50296 22.8493 5.50296C23.5469 5.50296 23.7794 6.05326 24.3608 7.429C24.9421 9.07988 25.8722 11.0059 27.5 11.0059C29.1278 11.0059 30.0579 9.07988 30.6392 7.429C31.2206 6.05326 31.4531 5.50296 32.1507 5.50296C32.8483 5.50296 33.0809 6.05326 33.6622 7.429C34.2436 9.07988 35.1737 11.0059 36.8015 11.0059V5.50296C36.1039 5.50296 35.8713 4.95266 35.29 3.57692C34.7086 1.92603 33.7785 0 32.1507 0C30.523 0 29.5928 1.92603 29.0115 3.57692C28.4301 4.95266 28.1976 5.50296 27.5 5.50296C26.8024 5.50296 26.5699 4.95266 25.9885 3.57692C25.4072 1.92603 24.477 0 22.8493 0C21.2215 0 20.2914 1.92603 19.71 3.57692C19.1287 4.95266 18.8961 5.50296 18.1985 5.50296V11.0059Z" fill="white"/>
<path d="M36.3971 11.0059C38.0248 11.0059 38.955 9.07988 39.5363 7.429C40.1176 6.05326 40.3502 5.50296 41.0478 5.50296C41.7454 5.50296 41.9779 6.05326 42.5593 7.429C43.1406 9.07988 44.0708 11.0059 45.6985 11.0059C47.3263 11.0059 48.2564 9.07988 48.8378 7.429C49.4191 6.05326 49.6517 5.50296 50.3493 5.50296C51.0469 5.50296 51.2794 6.05326 51.8608 7.429C52.4421 9.07988 53.3722 11.0059 55 11.0059V5.50296C54.3024 5.50296 54.0699 4.95266 53.4885 3.57692C52.9072 1.92603 51.977 0 50.3493 0C48.7215 0 47.7914 1.92603 47.21 3.57692C46.6287 4.95266 46.3961 5.50296 45.6985 5.50296C45.0009 5.50296 44.7684 4.95266 44.187 3.57692C43.6057 1.92603 42.6756 0 41.0478 0C39.42 0 38.4899 1.92603 37.9085 3.57692C37.3272 4.95266 37.0947 5.50296 36.3971 5.50296V11.0059Z" fill="white"/>
</svg>
